<?xml version="1.0" encoding="UTF-8" standalone="no"?>
<!-- Created with Inkscape (http://www.inkscape.org/) -->

<svg
   width="400"
   height="400"
   viewBox="0 0 105.83333 105.83334"
   version="1.1"
   id="svg7834"
   inkscape:version="1.1 (c68e22c387, 2021-05-23)"
   sodipodi:docname="DJ_Teacher.svg"
   xmlns:inkscape="http://www.inkscape.org/namespaces/inkscape"
   xmlns:sodipodi="http://sodipodi.sourceforge.net/DTD/sodipodi-0.dtd"
   xmlns="http://www.w3.org/2000/svg"
   xmlns:svg="http://www.w3.org/2000/svg">
  <sodipodi:namedview
     id="namedview7836"
     pagecolor="#ffeaff"
     bordercolor="#666666"
     borderopacity="1.0"
     inkscape:pageshadow="2"
     inkscape:pageopacity="0"
     inkscape:pagecheckerboard="0"
     inkscape:document-units="mm"
     showgrid="false"
     units="px"
     inkscape:zoom="2.708193"
     inkscape:cx="184.80957"
     inkscape:cy="207.33382"
     inkscape:window-width="1280"
     inkscape:window-height="961"
     inkscape:window-x="-8"
     inkscape:window-y="-8"
     inkscape:window-maximized="1"
     inkscape:current-layer="g16425" />
  <defs
     id="defs7831" />
  <g
     inkscape:label="Warstwa 1"
     inkscape:groupmode="layer"
     id="layer1">
    <g
       id="g15144"
       transform="translate(1.5198144,2.7632989)">
      <g
         id="g13778">
        <path
           sodipodi:type="star"
           style="fill:#ffffff;fill-opacity:1;stroke:none;stroke-width:0.1;stroke-miterlimit:4;stroke-dasharray:none;stroke-dashoffset:0;stroke-opacity:1"
           id="path13985"
           inkscape:flatsided="true"
           sodipodi:sides="5"
           sodipodi:cx="150.83858"
           sodipodi:cy="197.17944"
           sodipodi:r1="25.95277"
           sodipodi:r2="16.7292"
           sodipodi:arg1="1.5901802"
           sodipodi:arg2="2.2184987"
           inkscape:rounded="0.12"
           inkscape:randomized="-1.73472e-17"
           transform="matrix(0.70785406,0,0,-0.71456327,-54.566697,201.29002)"
           d="m 150.33554,223.12734 c -3.66043,-0.071 -23.26668,-14.90477 -24.33032,-18.40797 -1.06365,-3.5032 6.98547,-26.73375 9.98853,-28.82789 3.00306,-2.09414 27.58394,-1.6176 30.50358,0.59135 2.91964,2.20896 10.06234,25.73402 8.86372,29.19337 -1.19863,3.45934 -21.36508,17.5221 -25.02551,17.45114 z" />
      </g>
      <g
         id="g8679">
        <g
           id="g8080"
           transform="matrix(0.94241386,1.0764609,-1.0764609,0.94241386,34.494354,-59.284329)">
          <path
             sodipodi:type="star"
             style="fill:#e8beac;fill-opacity:1"
             id="path7882"
             inkscape:flatsided="true"
             sodipodi:sides="3"
             sodipodi:cx="129.97597"
             sodipodi:cy="133.66846"
             sodipodi:r1="25.50766"
             sodipodi:r2="14.884939"
             sodipodi:arg1="-0.38588268"
             sodipodi:arg2="0.66131492"
             inkscape:rounded="0.12"
             inkscape:randomized="0.027"
             transform="matrix(0.15106091,-0.0233325,-0.06548131,0.16987605,41.1905,9.4113239)"
             inkscape:transform-center-x="-0.67728931"
             inkscape:transform-center-y="-1.5789842"
             d="m 153.73556,124.29503 c 1.95357,4.93774 -21.41913,35.9693 -26.66765,35.30309 -5.24853,-0.66621 -20.41234,-36.82336 -17.15492,-41.02191 3.25742,-4.19856 41.869,0.78107 43.82257,5.71882 z" />
          <path
             sodipodi:type="star"
             style="fill:#e8beac;fill-opacity:1"
             id="path7882-7"
             inkscape:flatsided="true"
             sodipodi:sides="3"
             sodipodi:cx="129.97597"
             sodipodi:cy="133.66846"
             sodipodi:r1="25.50766"
             sodipodi:r2="14.884939"
             sodipodi:arg1="-0.38588268"
             sodipodi:arg2="0.66131492"
             inkscape:rounded="0.12"
             inkscape:randomized="0.027"
             transform="matrix(0.01788674,-0.14633937,-0.15700135,0.06770478,78.865249,46.424236)"
             inkscape:transform-center-x="-0.6329581"
             inkscape:transform-center-y="1.5236975"
             d="m 153.73556,124.29503 c 1.95357,4.93774 -21.41913,35.9693 -26.66765,35.30309 -5.24853,-0.66621 -20.41234,-36.82336 -17.15492,-41.02191 3.25742,-4.19856 41.869,0.78107 43.82257,5.71882 z" />
          <path
             sodipodi:type="star"
             style="fill:#e8beac;fill-opacity:1"
             id="path7963"
             inkscape:flatsided="true"
             sodipodi:sides="4"
             sodipodi:cx="150.65396"
             sodipodi:cy="166.16245"
             sodipodi:r1="27.572857"
             sodipodi:r2="19.496954"
             sodipodi:arg1="1.4364749"
             sodipodi:arg2="2.221873"
             inkscape:rounded="0.12"
             inkscape:randomized="0.027"
             transform="matrix(0.22853838,0.02341215,-0.02370659,0.22226464,25.680329,-7.6706415)"
             inkscape:transform-center-x="0.10763942"
             inkscape:transform-center-y="-0.036575212"
             d="m 154.38101,193.19368 c -4.66708,0.58307 -31.09718,-17.9494 -31.77885,-22.59778 -0.68167,-4.64837 19.67411,-30.60265 24.35073,-31.12649 4.67662,-0.52383 29.46944,17.95863 30.28992,22.59777 0.82048,4.63915 -18.19472,30.54342 -22.8618,31.1265 z" />
        </g>
        <g
           id="g8669"
           transform="translate(-0.04884868,0.09769737)">
          <path
             sodipodi:type="star"
             style="fill:#00ff00;fill-opacity:1"
             id="path8170"
             inkscape:flatsided="true"
             sodipodi:sides="4"
             sodipodi:cx="82.342728"
             sodipodi:cy="118.89847"
             sodipodi:r1="12.892139"
             sodipodi:r2="8.8927155"
             sodipodi:arg1="0.79299295"
             sodipodi:arg2="1.5783912"
             inkscape:rounded="0.12"
             inkscape:randomized="0.027"
             transform="matrix(0.07902211,0,0,0.26542645,37.749722,-1.3129405)"
             inkscape:transform-center-x="0.0036172407"
             inkscape:transform-center-y="-0.014497862"
             d="m 91.042042,127.98518 c -1.55017,1.57857 -16.49843,1.49534 -17.963509,-0.0944 -1.465079,-1.58976 -1.284737,-16.39671 0.266572,-17.93618 1.55131,-1.53948 16.504799,-1.56225 18.012503,-0.0143 1.507705,1.5479 1.234604,16.46637 -0.315566,18.04494 z" />
          <path
             sodipodi:type="star"
             style="fill:#00ff00;fill-opacity:1"
             id="path8170-2"
             inkscape:flatsided="true"
             sodipodi:sides="4"
             sodipodi:cx="82.342728"
             sodipodi:cy="118.89847"
             sodipodi:r1="12.892139"
             sodipodi:r2="8.8927155"
             sodipodi:arg1="0.79299295"
             sodipodi:arg2="1.5783912"
             inkscape:rounded="0.12"
             inkscape:randomized="0.027"
             transform="matrix(0.09347252,0,0,0.26782836,52.301268,-1.1101644)"
             inkscape:transform-center-x="0.0042789155"
             inkscape:transform-center-y="-0.014629197"
             d="m 91.042042,127.98518 c -1.55017,1.57857 -16.49843,1.49534 -17.963509,-0.0944 -1.465079,-1.58976 -1.284737,-16.39671 0.266572,-17.93618 1.55131,-1.53948 16.504799,-1.56225 18.012503,-0.0143 1.507705,1.5479 1.234604,16.46637 -0.315566,18.04494 z" />
          <path
             sodipodi:type="spiral"
             style="fill:none;fill-rule:evenodd;stroke:#00ff00;stroke-width:1.00157;stroke-miterlimit:4;stroke-dasharray:none;stroke-dashoffset:0;stroke-opacity:1"
             id="path8387"
             sodipodi:cx="146.03833"
             sodipodi:cy="104.12847"
             sodipodi:expansion="0"
             sodipodi:revolution="1.09"
             sodipodi:radius="17.478045"
             sodipodi:argument="-7.392715"
             sodipodi:t0="0.693425"
             transform="matrix(0.54215418,0,0,1.153722,-27.0734,-80.215101)"
             d="m 130.68249,95.781 c 4.54714,-8.364823 15.33849,-11.555505 23.70331,-7.008367 2.71145,1.47395 5.00975,3.668611 6.60715,6.309215" />
        </g>
      </g>
      <g
         id="g15127">
        <ellipse
           style="fill:#ffaaaa;fill-opacity:1;stroke:none;stroke-width:0.0264583;stroke-miterlimit:4;stroke-dasharray:none;stroke-dashoffset:0;stroke-opacity:1"
           id="path14996"
           cx="52.036369"
           cy="46.613396"
           rx="1.0880489"
           ry="1.0189664" />
        <path
           sodipodi:type="star"
           style="fill:#ffaaaa;fill-opacity:1;stroke:none;stroke-width:0.1;stroke-miterlimit:4;stroke-dasharray:none;stroke-dashoffset:0;stroke-opacity:1"
           id="path15020"
           inkscape:flatsided="true"
           sodipodi:sides="3"
           sodipodi:cx="186.2942"
           sodipodi:cy="172.45596"
           sodipodi:r1="7.4698992"
           sodipodi:r2="3.7349496"
           sodipodi:arg1="0.087495341"
           sodipodi:arg2="1.1346929"
           inkscape:rounded="0.12"
           inkscape:randomized="-1.73472e-17"
           transform="matrix(0.26458333,0,0,0.26458333,0.03454124,0.71256099)"
           inkscape:transform-center-x="-0.34019515"
           inkscape:transform-center-y="-0.078014696"
           d="m 193.73553,173.10871 c -0.13567,1.54665 -10.45568,6.35608 -11.72728,5.46526 -1.27161,-0.89082 -0.27669,-12.23293 1.13059,-12.88876 1.40727,-0.65583 10.73236,5.87685 10.59669,7.4235 z" />
        <path
           sodipodi:type="star"
           style="fill:#ffaaaa;fill-opacity:1;stroke:none;stroke-width:0.1;stroke-miterlimit:4;stroke-dasharray:none;stroke-dashoffset:0;stroke-opacity:1"
           id="path15020-7"
           inkscape:flatsided="true"
           sodipodi:sides="3"
           sodipodi:cx="186.2942"
           sodipodi:cy="172.45596"
           sodipodi:r1="7.4698992"
           sodipodi:r2="3.7349496"
           sodipodi:arg1="0.087495341"
           sodipodi:arg2="1.1346929"
           inkscape:rounded="0.12"
           inkscape:randomized="-1.73472e-17"
           transform="matrix(-0.26458333,0,0,0.26458333,104.17115,0.71256099)"
           inkscape:transform-center-x="0.3401952"
           inkscape:transform-center-y="-0.078014696"
           d="m 193.73553,173.10871 c -0.13567,1.54665 -10.45568,6.35608 -11.72728,5.46526 -1.27161,-0.89082 -0.27669,-12.23293 1.13059,-12.88876 1.40727,-0.65583 10.73236,5.87685 10.59669,7.4235 z" />
      </g>
    </g>
    <g
       id="g16208" />
    <g
       id="g16249"
       transform="translate(0,-1.4895719)">
      <path
         sodipodi:type="star"
         style="fill:#e8beac;fill-opacity:1;stroke:none;stroke-width:0.1;stroke-miterlimit:4;stroke-dasharray:none;stroke-dashoffset:0;stroke-opacity:1"
         id="path15500"
         inkscape:flatsided="true"
         sodipodi:sides="5"
         sodipodi:cx="66.84137"
         sodipodi:cy="113.31701"
         sodipodi:r1="17.987883"
         sodipodi:r2="8.6793365"
         sodipodi:arg1="0.64065831"
         sodipodi:arg2="1.2689768"
         inkscape:rounded="0.1"
         inkscape:randomized="-1.73472e-17"
         transform="matrix(0.21952171,0,0,0.21952171,3.1943198,15.323889)"
         inkscape:transform-center-x="0.40284339"
         inkscape:transform-center-y="-0.4677839"
         d="m 81.262299,124.06879 c -1.263947,1.69528 -18.187275,6.96403 -20.190165,6.28582 -2.00289,-0.67821 -12.243371,-15.14512 -12.217277,-17.25956 0.02609,-2.11444 10.620455,-16.324239 12.639472,-16.952821 2.019016,-0.628583 18.807173,5.056191 20.028901,6.782141 1.221727,1.72596 1.003016,19.44913 -0.260931,21.14442 z" />
      <rect
         style="fill:#ffffff;fill-opacity:1;stroke:none;stroke-width:0.036133;stroke-miterlimit:4;stroke-dasharray:none;stroke-dashoffset:0;stroke-opacity:1"
         id="rect15190"
         width="5.8492646"
         height="17.359108"
         x="31.75667"
         y="-64.965401"
         ry="1.8562579"
         transform="rotate(118.85407)" />
      <rect
         style="fill:#ffffff;fill-opacity:1;stroke:none;stroke-width:0.036133;stroke-miterlimit:4;stroke-dasharray:none;stroke-dashoffset:0;stroke-opacity:1"
         id="rect15190-0"
         width="5.8492646"
         height="17.359108"
         x="5.0586939"
         y="-62.078602"
         ry="1.8562579"
         transform="rotate(146.18077)" />
      <rect
         style="fill:#e8beac;fill-opacity:1;stroke:none;stroke-width:0.0291621;stroke-miterlimit:4;stroke-dasharray:none;stroke-dashoffset:0;stroke-opacity:1"
         id="rect15825"
         width="1.4323164"
         height="4.8936729"
         x="-5.0840292"
         y="35.668633"
         ry="0.76956958"
         transform="matrix(0.83240976,-0.55416061,0.4968441,0.86783981,0,0)" />
      <rect
         style="fill:#e8beac;fill-opacity:1;stroke:none;stroke-width:0.0288564;stroke-miterlimit:4;stroke-dasharray:none;stroke-dashoffset:0;stroke-opacity:1"
         id="rect15825-4"
         width="1.3941199"
         height="4.9229302"
         x="24.290781"
         y="26.40967"
         ry="0.77417052"
         transform="matrix(0.96422072,0.26510075,-0.21205333,0.9772581,0,0)" />
    </g>
    <g
       id="g16425"
       transform="translate(-1.7585526,1.0010875)">
      <g
         id="g16432"
         transform="rotate(5.3280299,83.238164,45.526975)">
        <path
           sodipodi:type="star"
           style="fill:#e8beac;fill-opacity:1;stroke:none;stroke-width:0.1;stroke-miterlimit:4;stroke-dasharray:none;stroke-dashoffset:0;stroke-opacity:1"
           id="path15500-0"
           inkscape:flatsided="true"
           sodipodi:sides="5"
           sodipodi:cx="66.84137"
           sodipodi:cy="113.31701"
           sodipodi:r1="17.987883"
           sodipodi:r2="8.6793365"
           sodipodi:arg1="0.64065831"
           sodipodi:arg2="1.2689768"
           inkscape:rounded="0.1"
           inkscape:randomized="-1.73472e-17"
           transform="matrix(-0.21952171,0,0,0.21952171,107.37912,12.833228)"
           inkscape:transform-center-x="0.40284339"
           inkscape:transform-center-y="-0.4677839"
           d="m 81.262299,124.06879 c -1.263947,1.69528 -18.187275,6.96403 -20.190165,6.28582 -2.00289,-0.67821 -12.243371,-15.14512 -12.217277,-17.25956 0.02609,-2.11444 10.620455,-16.324239 12.639472,-16.952821 2.019016,-0.628583 18.807173,5.056191 20.028901,6.782141 1.221727,1.72596 1.003016,19.44913 -0.260931,21.14442 z" />
        <rect
           style="fill:#ffffff;fill-opacity:1;stroke:none;stroke-width:0.036133;stroke-miterlimit:4;stroke-dasharray:none;stroke-dashoffset:0;stroke-opacity:1"
           id="rect15190-3"
           width="5.8492646"
           height="17.359108"
           x="82.935799"
           y="33.082474"
           ry="1.8562579"
           transform="matrix(0.48258043,0.87585166,0.87585166,-0.48258043,0,0)" />
        <rect
           style="fill:#ffffff;fill-opacity:1;stroke:none;stroke-width:0.036133;stroke-miterlimit:4;stroke-dasharray:none;stroke-dashoffset:0;stroke-opacity:1"
           id="rect15190-0-1"
           width="5.8492646"
           height="17.359108"
           x="95.536613"
           y="1.5329893"
           ry="1.8562579"
           transform="matrix(0.83079772,0.55657448,0.55657448,-0.83079772,0,0)" />
        <rect
           style="fill:#e8beac;fill-opacity:1;stroke:none;stroke-width:0.0291621;stroke-miterlimit:4;stroke-dasharray:none;stroke-dashoffset:0;stroke-opacity:1"
           id="rect15825-8"
           width="1.4323164"
           height="4.8936729"
           x="-100.02213"
           y="-27.824207"
           ry="0.76956958"
           transform="matrix(-0.83240976,-0.55416061,-0.4968441,0.86783981,0,0)" />
        <rect
           style="fill:#e8beac;fill-opacity:1;stroke:none;stroke-width:0.0288564;stroke-miterlimit:4;stroke-dasharray:none;stroke-dashoffset:0;stroke-opacity:1"
           id="rect15825-4-4"
           width="1.3941199"
           height="4.9229302"
           x="-84.458412"
           y="53.361439"
           ry="0.77417052"
           transform="matrix(-0.96422072,0.26510075,0.21205333,0.9772581,0,0)" />
      </g>
    </g>
  </g>
</svg>
