<?xml version="1.0" encoding="UTF-8" standalone="no"?>
<!-- Created with Inkscape (http://www.inkscape.org/) -->

<svg
   width="400"
   height="400"
   viewBox="0 0 105.83333 105.83333"
   version="1.1"
   id="svg5"
   inkscape:export-filename="C:\Users\student\Pictures\Saved Pictures\bitmapa.png"
   inkscape:export-xdpi="96"
   inkscape:export-ydpi="96"
   inkscape:version="1.1 (c68e22c387, 2021-05-23)"
   sodipodi:docname="math_Teacher.svg"
   xmlns:inkscape="http://www.inkscape.org/namespaces/inkscape"
   xmlns:sodipodi="http://sodipodi.sourceforge.net/DTD/sodipodi-0.dtd"
   xmlns="http://www.w3.org/2000/svg"
   xmlns:svg="http://www.w3.org/2000/svg">
  <sodipodi:namedview
     id="namedview7"
     pagecolor="#e1ffff"
     bordercolor="#666666"
     borderopacity="1.0"
     inkscape:pageshadow="2"
     inkscape:pageopacity="0"
     inkscape:pagecheckerboard="0"
     inkscape:document-units="mm"
     showgrid="false"
     units="px"
     inkscape:zoom="1.4142136"
     inkscape:cx="180.66578"
     inkscape:cy="254.91199"
     inkscape:window-width="1280"
     inkscape:window-height="961"
     inkscape:window-x="-8"
     inkscape:window-y="-8"
     inkscape:window-maximized="1"
     inkscape:current-layer="g3601" />
  <defs
     id="defs2" />
  <g
     inkscape:label="Warstwa 1"
     inkscape:groupmode="layer"
     id="layer1">
    <g
       id="g3601"
       transform="translate(-2.3627904,0.6179912)">
      <path
         id="path286"
         style="fill:#552200;stroke-width:0.0628128"
         d="m 54.972363,7.009058 c -3.310054,0.023558 -15.645827,8.642615 -16.645017,11.629903 -0.42738,1.277758 0.21819,4.530469 1.303987,7.974872 l -0.968812,5.846805 2.735387,-1.027676 c 1.181461,2.796114 2.473384,5.111123 3.470135,5.785868 2.692521,1.822684 18.024592,1.713306 20.687851,-0.147502 0.887029,-0.619766 1.990372,-2.57871 3.031086,-5.011648 l 2.628745,0.987511 -0.925878,-5.585734 C 71.519403,23.622234 72.294482,19.802815 71.800892,18.40074 70.754352,15.428014 58.282415,6.9854965 54.972363,7.009058 Z" />
      <path
         sodipodi:type="spiral"
         style="fill:none;fill-rule:evenodd;stroke:#000000"
         id="path2041"
         sodipodi:cx="113.05592"
         sodipodi:cy="110.70602"
         sodipodi:expansion="0"
         sodipodi:revolution="0.71291161"
         sodipodi:radius="10.457011"
         sodipodi:argument="-6.7358818"
         sodipodi:t0="0.99900001"
         d="m 106.39796,102.64248 c 0.012,-0.01 0.0241,-0.0199 0.0362,-0.0297"
         transform="matrix(0.29002744,0,0,0.29002744,-3.9374984,-7.0653557)" />
      <path
         sodipodi:type="star"
         style="fill:#5f5fd3;fill-opacity:1;stroke:none;stroke-width:0.4;stroke-miterlimit:4;stroke-dasharray:none;stroke-opacity:1"
         id="path3203"
         inkscape:flatsided="true"
         sodipodi:sides="5"
         sodipodi:cx="151.32085"
         sodipodi:cy="261.62952"
         sodipodi:r1="88.955048"
         sodipodi:r2="71.966141"
         sodipodi:arg1="0.93206466"
         sodipodi:arg2="1.5603832"
         inkscape:rounded="0.03"
         inkscape:randomized="-1.73472e-17"
         d="m 204.35386,333.0473 c -2.5187,1.87033 -102.01016,2.90638 -104.567264,1.08892 -2.557102,-1.81747 -34.287001,-96.11931 -33.348678,-99.11289 0.938323,-2.99357 80.819622,-62.31137 83.956642,-62.34404 3.13702,-0.0327 84.23628,57.60876 85.23674,60.58215 1.00046,2.97338 -28.75874,97.91554 -31.27744,99.78586 z"
         transform="matrix(0.36074273,0,0,0.42564154,0.59438404,-28.637376)"
         inkscape:transform-center-x="0.10249084"
         inkscape:transform-center-y="-3.2978075" />
      <g
         id="g3077"
         transform="matrix(3.309242,0,0,3.309242,-192.6146,-56.382319)"
         style="fill-rule:nonzero">
        <path
           sodipodi:type="star"
           style="fill:#e8beac;fill-opacity:1;stroke:none;stroke-width:0.4;stroke-miterlimit:4;stroke-dasharray:none;stroke-opacity:1;fill-rule:nonzero"
           id="path2844"
           inkscape:flatsided="true"
           sodipodi:sides="3"
           sodipodi:cx="278.60007"
           sodipodi:cy="100.40916"
           sodipodi:r1="18.116915"
           sodipodi:r2="9.8393345"
           sodipodi:arg1="0.52368467"
           sodipodi:arg2="1.5708822"
           inkscape:rounded="-1.0408341e-17"
           inkscape:randomized="-1.73472e-17"
           d="m 294.289,109.46896 -31.37942,-0.003 15.69204,-27.174028 z"
           transform="matrix(0.26458333,0,0,0.18885766,1.122532,4.2204318)" />
        <path
           sodipodi:type="star"
           style="fill:#e8beac;fill-opacity:1;stroke:none;stroke-width:0.4;stroke-miterlimit:4;stroke-dasharray:none;stroke-opacity:1;fill-rule:nonzero"
           id="path2844-0"
           inkscape:flatsided="true"
           sodipodi:sides="3"
           sodipodi:cx="278.60007"
           sodipodi:cy="100.40916"
           sodipodi:r1="18.116915"
           sodipodi:r2="9.8393345"
           sodipodi:arg1="0.52368467"
           sodipodi:arg2="1.5708822"
           inkscape:rounded="-1.0408341e-17"
           inkscape:randomized="-1.73472e-17"
           transform="matrix(0.26458333,0,0,-0.12603977,1.1225286,44.509233)"
           d="m 294.289,109.46896 -31.37942,-0.003 15.69204,-27.174028 z" />
        <rect
           style="fill:#e8beac;fill-opacity:1;stroke:none;stroke-width:0.120225;stroke-miterlimit:4;stroke-dasharray:none;stroke-opacity:1;fill-rule:nonzero"
           id="rect2992"
           width="8.3026781"
           height="5.8181553"
           x="70.684021"
           y="24.893974"
           ry="0" />
      </g>
      <g
         id="g2537"
         transform="matrix(1.3400761,0,0,1.3400761,-15.768775,-10.02331)">
        <g
           id="g2300">
          <path
             sodipodi:type="star"
             style="fill:none;stroke:#000000;stroke-width:0.636468;stroke-miterlimit:4;stroke-dasharray:none;stroke-opacity:1"
             id="path943"
             inkscape:flatsided="true"
             sodipodi:sides="4"
             sodipodi:cx="89.818092"
             sodipodi:cy="89.556992"
             sodipodi:r1="19.386499"
             sodipodi:r2="12.274435"
             sodipodi:arg1="0.77587464"
             sodipodi:arg2="1.5612728"
             inkscape:rounded="0.06"
             inkscape:randomized="-1.73472e-17"
             d="m 103.65635,103.13415 c -1.15206,1.17421 -26.241197,1.41315 -27.415412,0.26109 -1.174214,-1.15206 -1.413158,-26.241188 -0.261099,-27.415402 1.15206,-1.174215 26.241191,-1.413159 27.415411,-0.2611 1.17421,1.15206 1.41316,26.241192 0.2611,27.415412 z"
             transform="matrix(0.21389167,0,0,0.11624378,28.524645,19.122313)" />
          <path
             sodipodi:type="star"
             style="fill:none;stroke:#000000;stroke-width:0.636468;stroke-miterlimit:4;stroke-dasharray:none;stroke-opacity:1"
             id="path943-6"
             inkscape:flatsided="true"
             sodipodi:sides="4"
             sodipodi:cx="89.818092"
             sodipodi:cy="89.556992"
             sodipodi:r1="19.386499"
             sodipodi:r2="12.274435"
             sodipodi:arg1="0.77587464"
             sodipodi:arg2="1.5612728"
             inkscape:rounded="0.06"
             inkscape:randomized="-1.73472e-17"
             transform="matrix(0.21389167,0,0,0.11624378,38.817934,19.156854)"
             d="m 103.65635,103.13415 c -1.15206,1.17421 -26.241197,1.41315 -27.415412,0.26109 -1.174214,-1.15206 -1.413158,-26.241188 -0.261099,-27.415402 1.15206,-1.174215 26.241191,-1.413159 27.415411,-0.2611 1.17421,1.15206 1.41316,26.241192 0.2611,27.415412 z" />
          <path
             sodipodi:type="spiral"
             style="fill:none;fill-rule:evenodd;stroke:#000000;stroke-width:0.139318;stroke-miterlimit:4;stroke-dasharray:none"
             id="path2212"
             sodipodi:cx="141.16406"
             sodipodi:cy="116.70312"
             sodipodi:expansion="0"
             sodipodi:revolution="1.8286099"
             sodipodi:radius="2.1405823"
             sodipodi:argument="-11.716411"
             sodipodi:t0="0.77219331"
             d="m 139.11738,116.07607 c 0.34157,-1.11489 1.55884,-1.76121 2.67373,-1.41963 0.72388,0.22177 1.28834,0.82742 1.45866,1.5651"
             transform="matrix(0.9807381,0,0,0.57591809,-85.589325,-37.208159)" />
        </g>
        <path
           sodipodi:type="spiral"
           style="fill:none;fill-rule:evenodd;stroke:#000000"
           id="path2347"
           sodipodi:cx="220.75"
           sodipodi:cy="135.25"
           sodipodi:expansion="0"
           sodipodi:revolution="1.6856197"
           sodipodi:radius="5.7131972"
           sodipodi:argument="-11.665435"
           sodipodi:t0="0.95996481"
           d="m 221.16332,129.55177 c 0.806,0.0585 1.5972,0.28977 2.30778,0.67466"
           transform="matrix(1.5490075,-0.14463335,0.10796027,0.55940012,-295.48203,-11.349545)" />
        <path
           sodipodi:type="spiral"
           style="fill:none;fill-rule:evenodd;stroke:#000000"
           id="path2347-8"
           sodipodi:cx="220.75"
           sodipodi:cy="135.25"
           sodipodi:expansion="0"
           sodipodi:revolution="1.6856197"
           sodipodi:radius="5.7131972"
           sodipodi:argument="-11.665435"
           sodipodi:t0="0.95996481"
           transform="matrix(-1.5490075,-0.14463335,-0.10796027,0.55940012,401.1911,-11.550873)"
           d="m 221.16332,129.55177 c 0.806,0.0585 1.5972,0.28977 2.30778,0.67466" />
      </g>
      <rect
         style="fill:#000000;fill-opacity:1;stroke:none;stroke-width:0.116011;stroke-miterlimit:4;stroke-dasharray:none;stroke-opacity:1"
         id="rect3437"
         width="0.41016075"
         height="2.0508037"
         x="47.742752"
         y="28.618628" />
      <rect
         style="fill:#000000;fill-opacity:1;stroke:none;stroke-width:0.116011;stroke-miterlimit:4;stroke-dasharray:none;stroke-opacity:1"
         id="rect3437-9"
         width="0.41016075"
         height="2.0508037"
         x="61.893299"
         y="28.618631" />
      <rect
         style="fill:#5f5fd3;fill-opacity:1;stroke-width:0.115649"
         id="rect931"
         width="30.828674"
         height="10.440642"
         x="-74.257362"
         y="59.623035"
         transform="matrix(0.546595,-0.8373971,0.8258862,0.56383685,0,0)" />
      <rect
         style="fill:#e8beac;fill-opacity:1;stroke-width:0.115649"
         id="rect931-92"
         width="30.828674"
         height="10.440642"
         x="-86.351021"
         y="59.639187"
         transform="matrix(0.546595,-0.8373971,0.8258862,0.56383685,0,0)" />
      <rect
         style="fill:#5f5fd3;fill-opacity:1;stroke-width:0.115649"
         id="rect931-9"
         width="30.828674"
         height="10.440642"
         x="-136.60794"
         y="-32.978584"
         transform="matrix(-0.546595,-0.8373971,-0.8258862,0.56383685,0,0)" />
      <rect
         style="fill:#e8beac;fill-opacity:1;stroke-width:0.115649"
         id="rect931-92-8"
         width="30.828674"
         height="10.440642"
         x="-150.1154"
         y="-32.981438"
         transform="matrix(-0.546595,-0.8373971,-0.8258862,0.56383685,0,0)" />
      <path
         id="path1136"
         style="fill:#5f6dd3;fill-opacity:1;stroke:#81499b;stroke-width:0.142486;stroke-opacity:1"
         d="m 55.033259,58.000639 a 1.5730071,1.5730072 0 0 0 -1.573057,1.573057 1.5730071,1.5730072 0 0 0 1.573057,1.572494 1.5730071,1.5730072 0 0 0 1.573059,-1.572494 1.5730071,1.5730072 0 0 0 -1.573059,-1.573057 z m 0,5.480499 a 1.5730071,1.5730072 0 0 0 -1.573057,1.573059 1.5730071,1.5730072 0 0 0 1.573057,1.57306 1.5730071,1.5730072 0 0 0 1.573059,-1.57306 1.5730071,1.5730072 0 0 0 -1.573059,-1.573059 z m 0,5.481066 a 1.5730071,1.5730072 0 0 0 -1.573057,1.573059 1.5730071,1.5730072 0 0 0 1.573057,1.57306 1.5730071,1.5730072 0 0 0 1.573059,-1.57306 1.5730071,1.5730072 0 0 0 -1.573059,-1.573059 z m 0,5.480496 a 1.5730071,1.5730072 0 0 0 -1.573057,1.57306 1.5730071,1.5730072 0 0 0 1.573057,1.573059 1.5730071,1.5730072 0 0 0 1.573059,-1.573059 1.5730071,1.5730072 0 0 0 -1.573059,-1.57306 z m 0,5.481067 a 1.5730071,1.5730072 0 0 0 -1.573057,1.57306 1.5730071,1.5730072 0 0 0 1.573057,1.573059 1.5730071,1.5730072 0 0 0 1.573059,-1.573059 1.5730071,1.5730072 0 0 0 -1.573059,-1.57306 z m 0,5.481066 a 1.5730071,1.5730072 0 0 0 -1.573057,1.57306 1.5730071,1.5730072 0 0 0 1.573057,1.572491 1.5730071,1.5730072 0 0 0 1.573059,-1.572491 1.5730071,1.5730072 0 0 0 -1.573059,-1.57306 z m 0,5.480498 a 1.5730071,1.5730072 0 0 0 -1.573057,1.573059 1.5730071,1.5730072 0 0 0 1.573057,1.57306 1.5730071,1.5730072 0 0 0 1.573059,-1.57306 1.5730071,1.5730072 0 0 0 -1.573059,-1.573059 z m 0,5.481067 a 1.5730071,1.5730072 0 0 0 -1.573057,1.573054 1.5730071,1.5730072 0 0 0 1.573057,1.573066 1.5730071,1.5730072 0 0 0 1.573059,-1.573066 1.5730071,1.5730072 0 0 0 -1.573059,-1.573054 z m 0,5.480492 a 1.5730071,1.5730072 0 0 0 -1.573057,1.57307 1.5730071,1.5730072 0 0 0 1.573057,1.57305 1.5730071,1.5730072 0 0 0 1.573059,-1.57305 1.5730071,1.5730072 0 0 0 -1.573059,-1.57307 z m 0,5.48108 a 1.5730071,1.5730072 0 0 0 -1.573057,1.57305 1.5730071,1.5730072 0 0 0 1.573057,1.57306 1.5730071,1.5730072 0 0 0 1.573059,-1.57306 1.5730071,1.5730072 0 0 0 -1.573059,-1.57305 z" />
      <circle
         id="path3744"
         style="fill:#000000;stroke:#81499b;stroke-width:0.264583"
         cx="58.582932"
         cy="43.441387"
         r="0.0049840054" />
      <circle
         id="path3746"
         style="fill:#000000;stroke:#81499b;stroke-width:0.264583"
         cx="58.582932"
         cy="43.441387"
         r="0.0049840054" />
    </g>
  </g>
</svg>
