<?xml version="1.0" encoding="UTF-8" standalone="no"?>
<!-- Created with Inkscape (http://www.inkscape.org/) -->

<svg
   width="400"
   height="400"
   viewBox="0 0 105.83333 105.83333"
   version="1.1"
   id="svg5"
   inkscape:export-filename="C:\Users\student\Pictures\Saved Pictures\Math_Teaher_2.png"
   inkscape:export-xdpi="96"
   inkscape:export-ydpi="96"
   inkscape:version="1.1 (c68e22c387, 2021-05-23)"
   sodipodi:docname="math_Teacher.svg"
   xmlns:inkscape="http://www.inkscape.org/namespaces/inkscape"
   xmlns:sodipodi="http://sodipodi.sourceforge.net/DTD/sodipodi-0.dtd"
   xmlns="http://www.w3.org/2000/svg"
   xmlns:svg="http://www.w3.org/2000/svg">
  <sodipodi:namedview
     id="namedview7"
     pagecolor="#e1ffff"
     bordercolor="#666666"
     borderopacity="1.0"
     inkscape:pageshadow="2"
     inkscape:pageopacity="0"
     inkscape:pagecheckerboard="0"
     inkscape:document-units="mm"
     showgrid="false"
     units="px"
     inkscape:zoom="1.4142136"
     inkscape:cx="214.96046"
     inkscape:cy="246.42671"
     inkscape:window-width="1280"
     inkscape:window-height="961"
     inkscape:window-x="-8"
     inkscape:window-y="-8"
     inkscape:window-maximized="1"
     inkscape:current-layer="g3601" />
  <defs
     id="defs2" />
  <g
     inkscape:label="Warstwa 1"
     inkscape:groupmode="layer"
     id="layer1">
    <g
       id="g3601"
       transform="translate(-2.3627904,0.6179912)">
      <path
         id="path286"
         style="fill:#552200;stroke-width:0.0745357"
         d="M 54.723736,0.08682282 C 51.464166,0.12050291 39.316577,12.445075 38.332624,16.716617 c -0.42086,1.827072 0.214675,6.477742 1.283912,11.402914 l -0.954155,8.360726 2.694024,-1.469839 c 0.343304,1.179761 0.695808,2.297078 1.047791,3.31446 h 24.965272 c 0.25479,-0.753615 0.509867,-1.564447 0.761288,-2.417911 l 2.588686,1.411802 -0.911914,-7.987028 c 1.2108,-5.489726 1.974029,-10.950904 1.487971,-12.955736 C 70.264921,12.125285 57.983304,0.05313181 54.723736,0.08682282 Z" />
      <path
         sodipodi:type="spiral"
         style="fill:none;fill-rule:evenodd;stroke:#000000"
         id="path2041"
         sodipodi:cx="113.05592"
         sodipodi:cy="110.70602"
         sodipodi:expansion="0"
         sodipodi:revolution="0.71291161"
         sodipodi:radius="10.457011"
         sodipodi:argument="-6.7358818"
         sodipodi:t0="0.99900001"
         d="m 106.39796,102.64248 c 0.012,-0.01 0.0241,-0.0199 0.0362,-0.0297"
         transform="matrix(0.28560396,0,0,0.2828153,-3.4719062,-12.725466)" />
      <path
         sodipodi:type="star"
         style="fill:#5f5fd3;fill-opacity:1;stroke:none;stroke-width:0.4;stroke-miterlimit:4;stroke-dasharray:none;stroke-opacity:1"
         id="path3203"
         inkscape:flatsided="true"
         sodipodi:sides="5"
         sodipodi:cx="151.32085"
         sodipodi:cy="261.62952"
         sodipodi:r1="88.955048"
         sodipodi:r2="71.966141"
         sodipodi:arg1="0.93206466"
         sodipodi:arg2="1.5603832"
         inkscape:rounded="0.03"
         inkscape:randomized="-1.73472e-17"
         d="m 204.35386,333.0473 c -2.5187,1.87033 -102.01016,2.90638 -104.567264,1.08892 -2.557102,-1.81747 -34.287001,-96.11931 -33.348678,-99.11289 0.938323,-2.99357 80.819622,-62.31137 83.956642,-62.34404 3.13702,-0.0327 84.23628,57.60876 85.23674,60.58215 1.00046,2.97338 -28.75874,97.91554 -31.27744,99.78586 z"
         transform="matrix(0.35524071,0,0,0.41505708,0.99085599,-33.761054)"
         inkscape:transform-center-x="0.10092633"
         inkscape:transform-center-y="-3.2158013" />
      <g
         id="g3077"
         transform="matrix(3.2587695,0,0,3.2269508,-189.27133,-60.816062)"
         style="fill-rule:nonzero">
        <path
           sodipodi:type="star"
           style="fill:#e8beac;fill-opacity:1;fill-rule:nonzero;stroke:none;stroke-width:0.4;stroke-miterlimit:4;stroke-dasharray:none;stroke-opacity:1"
           id="path2844"
           inkscape:flatsided="true"
           sodipodi:sides="3"
           sodipodi:cx="278.60007"
           sodipodi:cy="100.40916"
           sodipodi:r1="18.116915"
           sodipodi:r2="9.8393345"
           sodipodi:arg1="0.52368467"
           sodipodi:arg2="1.5708822"
           inkscape:rounded="-1.0408341e-17"
           inkscape:randomized="-1.73472e-17"
           d="m 294.289,109.46896 -31.37942,-0.003 15.69204,-27.174028 z"
           transform="matrix(0.26458333,0,0,0.18885766,1.122532,4.2256433)" />
        <path
           sodipodi:type="star"
           style="fill:#e8beac;fill-opacity:1;fill-rule:nonzero;stroke:none;stroke-width:0.4;stroke-miterlimit:4;stroke-dasharray:none;stroke-opacity:1"
           id="path2844-0"
           inkscape:flatsided="true"
           sodipodi:sides="3"
           sodipodi:cx="278.60007"
           sodipodi:cy="100.40916"
           sodipodi:r1="18.116915"
           sodipodi:r2="9.8393345"
           sodipodi:arg1="0.52368467"
           sodipodi:arg2="1.5708822"
           inkscape:rounded="-1.0408341e-17"
           inkscape:randomized="-1.73472e-17"
           transform="matrix(0.26458333,0,0,-0.12603977,1.1225286,44.488558)"
           d="m 294.289,109.46896 -31.37942,-0.003 15.69204,-27.174028 z" />
        <rect
           style="fill:#e8beac;fill-opacity:1;fill-rule:nonzero;stroke:none;stroke-width:0.120225;stroke-miterlimit:4;stroke-dasharray:none;stroke-opacity:1"
           id="rect2992"
           width="8.3026781"
           height="5.8181553"
           x="70.684021"
           y="24.893974"
           ry="0" />
      </g>
      <g
         id="g2537"
         transform="matrix(1.3196373,0,0,1.3067522,-15.122732,-15.609864)">
        <g
           id="g2300">
          <path
             sodipodi:type="star"
             style="fill:none;stroke:#000000;stroke-width:0.636468;stroke-miterlimit:4;stroke-dasharray:none;stroke-opacity:1"
             id="path943"
             inkscape:flatsided="true"
             sodipodi:sides="4"
             sodipodi:cx="89.818092"
             sodipodi:cy="89.556992"
             sodipodi:r1="19.386499"
             sodipodi:r2="12.274435"
             sodipodi:arg1="0.77587464"
             sodipodi:arg2="1.5612728"
             inkscape:rounded="0.06"
             inkscape:randomized="-1.73472e-17"
             d="m 103.65635,103.13415 c -1.15206,1.17421 -26.241197,1.41315 -27.415412,0.26109 -1.174214,-1.15206 -1.413158,-26.241188 -0.261099,-27.415402 1.15206,-1.174215 26.241191,-1.413159 27.415411,-0.2611 1.17421,1.15206 1.41316,26.241192 0.2611,27.415412 z"
             transform="matrix(0.21389167,0,0,0.11624378,28.524645,19.122313)" />
          <path
             sodipodi:type="star"
             style="fill:none;stroke:#000000;stroke-width:0.636468;stroke-miterlimit:4;stroke-dasharray:none;stroke-opacity:1"
             id="path943-6"
             inkscape:flatsided="true"
             sodipodi:sides="4"
             sodipodi:cx="89.818092"
             sodipodi:cy="89.556992"
             sodipodi:r1="19.386499"
             sodipodi:r2="12.274435"
             sodipodi:arg1="0.77587464"
             sodipodi:arg2="1.5612728"
             inkscape:rounded="0.06"
             inkscape:randomized="-1.73472e-17"
             transform="matrix(0.21389167,0,0,0.11624378,38.817934,19.156854)"
             d="m 103.65635,103.13415 c -1.15206,1.17421 -26.241197,1.41315 -27.415412,0.26109 -1.174214,-1.15206 -1.413158,-26.241188 -0.261099,-27.415402 1.15206,-1.174215 26.241191,-1.413159 27.415411,-0.2611 1.17421,1.15206 1.41316,26.241192 0.2611,27.415412 z" />
          <path
             sodipodi:type="spiral"
             style="fill:none;fill-rule:evenodd;stroke:#000000;stroke-width:0.139318;stroke-miterlimit:4;stroke-dasharray:none"
             id="path2212"
             sodipodi:cx="141.16406"
             sodipodi:cy="116.70312"
             sodipodi:expansion="0"
             sodipodi:revolution="1.8286099"
             sodipodi:radius="2.1405823"
             sodipodi:argument="-11.716411"
             sodipodi:t0="0.77219331"
             d="m 139.11738,116.07607 c 0.34157,-1.11489 1.55884,-1.76121 2.67373,-1.41963 0.72388,0.22177 1.28834,0.82742 1.45866,1.5651"
             transform="matrix(0.9807381,0,0,0.57591809,-85.589325,-37.208159)" />
        </g>
        <path
           sodipodi:type="spiral"
           style="fill:none;fill-rule:evenodd;stroke:#000000"
           id="path2347"
           sodipodi:cx="220.75"
           sodipodi:cy="135.25"
           sodipodi:expansion="0"
           sodipodi:revolution="1.6856197"
           sodipodi:radius="5.7131972"
           sodipodi:argument="-11.665435"
           sodipodi:t0="0.95996481"
           d="m 221.16332,129.55177 c 0.806,0.0585 1.5972,0.28977 2.30778,0.67466"
           transform="matrix(1.5490075,-0.14463335,0.10796027,0.55940012,-295.48203,-11.349545)" />
        <path
           sodipodi:type="spiral"
           style="fill:none;fill-rule:evenodd;stroke:#000000"
           id="path2347-8"
           sodipodi:cx="220.75"
           sodipodi:cy="135.25"
           sodipodi:expansion="0"
           sodipodi:revolution="1.6856197"
           sodipodi:radius="5.7131972"
           sodipodi:argument="-11.665435"
           sodipodi:t0="0.95996481"
           transform="matrix(-1.5490075,-0.14463335,-0.10796027,0.55940012,401.1911,-11.550873)"
           d="m 221.16332,129.55177 c 0.806,0.0585 1.5972,0.28977 2.30778,0.67466" />
      </g>
      <rect
         style="fill:#000000;fill-opacity:1;stroke:none;stroke-width:0.113682;stroke-miterlimit:4;stroke-dasharray:none;stroke-opacity:1"
         id="rect3437"
         width="0.40390497"
         height="1.9998058"
         x="47.420124"
         y="22.071165" />
      <rect
         style="fill:#000000;fill-opacity:1;stroke:none;stroke-width:0.113682;stroke-miterlimit:4;stroke-dasharray:none;stroke-opacity:1"
         id="rect3437-9"
         width="0.40390497"
         height="1.9998058"
         x="61.354847"
         y="22.071169" />
      <rect
         style="fill:#5f5fd3;fill-opacity:1;stroke-width:0.113315"
         id="rect931"
         width="30.150921"
         height="10.249599"
         x="-67.562714"
         y="55.658649"
         transform="matrix(0.55035769,-0.83492899,0.82844921,0.5600642,0,0)" />
      <rect
         style="fill:#e8beac;fill-opacity:1;stroke-width:0.113315"
         id="rect931-92"
         width="30.150921"
         height="10.249599"
         x="-79.390511"
         y="55.674496"
         transform="matrix(0.55035769,-0.83492899,0.82844921,0.5600642,0,0)" />
      <rect
         style="fill:#5f5fd3;fill-opacity:1;stroke-width:0.113315"
         id="rect931-9"
         width="30.150921"
         height="10.249599"
         x="-128.99681"
         y="-35.925739"
         transform="matrix(-0.55035769,-0.83492899,-0.82844921,0.5600642,0,0)" />
      <rect
         style="fill:#e8beac;fill-opacity:1;stroke-width:0.113315"
         id="rect931-92-8"
         width="30.150921"
         height="10.249599"
         x="-142.20731"
         y="-35.928543"
         transform="matrix(-0.55035769,-0.83492899,-0.82844921,0.5600642,0,0)" />
      <path
         id="path1136"
         style="fill:#5f6dd3;fill-opacity:1;stroke:#81499b;stroke-width:0.139623;stroke-opacity:1"
         d="m 54.599433,50.722528 a 1.5490157,1.5338911 0 0 0 -1.549065,1.533939 1.5490157,1.5338911 0 0 0 1.549065,1.533391 1.5490157,1.5338911 0 0 0 1.549067,-1.533391 1.5490157,1.5338911 0 0 0 -1.549067,-1.533939 z m 0,5.344214 a 1.5490157,1.5338911 0 0 0 -1.549065,1.533943 1.5490157,1.5338911 0 0 0 1.549065,1.533942 1.5490157,1.5338911 0 0 0 1.549067,-1.533942 1.5490157,1.5338911 0 0 0 -1.549067,-1.533943 z m 0,5.344768 a 1.5490157,1.5338911 0 0 0 -1.549065,1.533942 1.5490157,1.5338911 0 0 0 1.549065,1.533943 1.5490157,1.5338911 0 0 0 1.549067,-1.533943 1.5490157,1.5338911 0 0 0 -1.549067,-1.533942 z m 0,5.344212 a 1.5490157,1.5338911 0 0 0 -1.549065,1.533944 1.5490157,1.5338911 0 0 0 1.549065,1.533941 1.5490157,1.5338911 0 0 0 1.549067,-1.533941 1.5490157,1.5338911 0 0 0 -1.549067,-1.533944 z m 0,5.344769 a 1.5490157,1.5338911 0 0 0 -1.549065,1.533943 1.5490157,1.5338911 0 0 0 1.549065,1.533943 1.5490157,1.5338911 0 0 0 1.549067,-1.533943 1.5490157,1.5338911 0 0 0 -1.549067,-1.533943 z m 0,5.344767 a 1.5490157,1.5338911 0 0 0 -1.549065,1.533945 1.5490157,1.5338911 0 0 0 1.549065,1.533386 1.5490157,1.5338911 0 0 0 1.549067,-1.533386 1.5490157,1.5338911 0 0 0 -1.549067,-1.533945 z m 0,5.344217 a 1.5490157,1.5338911 0 0 0 -1.549065,1.53394 1.5490157,1.5338911 0 0 0 1.549065,1.533942 1.5490157,1.5338911 0 0 0 1.549067,-1.533942 1.5490157,1.5338911 0 0 0 -1.549067,-1.53394 z m 0,5.344769 a 1.5490157,1.5338911 0 0 0 -1.549065,1.533935 1.5490157,1.5338911 0 0 0 1.549065,1.533947 1.5490157,1.5338911 0 0 0 1.549067,-1.533947 1.5490157,1.5338911 0 0 0 -1.549067,-1.533935 z m 0,5.344193 a 1.5490157,1.5338911 0 0 0 -1.549065,1.533936 1.5490157,1.5338911 0 0 0 1.549065,1.533975 1.5490157,1.5338911 0 0 0 1.549067,-1.533975 1.5490157,1.5338911 0 0 0 -1.549067,-1.533936 z m 0,5.344784 a 1.5490157,1.5338911 0 0 0 -1.549065,1.533939 1.5490157,1.5338911 0 0 0 1.549065,1.53398 1.5490157,1.5338911 0 0 0 1.549067,-1.53398 1.5490157,1.5338911 0 0 0 -1.549067,-1.533939 z" />
      <g
         id="g6518"
         transform="matrix(0.96682649,-0.18519069,0.1870167,0.95738637,-13.354268,37.936278)">
        <rect
           style="fill:#a7a7a7;fill-opacity:1;fill-rule:evenodd;stroke:none;stroke-width:0.105833;stroke-opacity:1"
           id="rect4637"
           width="12.862346"
           height="18.287916"
           x="7.1335516"
           y="50.878162"
           rx="0.40000001" />
        <rect
           style="fill:#dedede;fill-opacity:1;fill-rule:evenodd;stroke:none;stroke-width:0.124052;stroke-opacity:1"
           id="rect5878-7"
           width="2.1653645"
           height="2.1653645"
           x="13.762791"
           y="57.673023"
           rx="0.5036338" />
        <rect
           style="fill:#dedede;fill-opacity:1;fill-rule:evenodd;stroke:none;stroke-width:0.124052;stroke-opacity:1"
           id="rect5878-7-8"
           width="2.1653645"
           height="2.1653645"
           x="16.52879"
           y="57.673023"
           rx="0.5036338" />
        <rect
           style="fill:#717171;fill-opacity:1;fill-rule:evenodd;stroke:none;stroke-width:0.111792;stroke-opacity:1"
           id="rect5576"
           width="10.918731"
           height="4.199512"
           x="8.1053591"
           y="51.950211"
           rx="0.42252472" />
        <rect
           style="fill:#dedede;fill-opacity:1;fill-rule:evenodd;stroke:none;stroke-width:0.124052;stroke-opacity:1"
           id="rect5878"
           width="2.1653645"
           height="2.1653645"
           x="8.1627903"
           y="57.673023"
           rx="0.5036338" />
        <rect
           style="fill:#dedede;fill-opacity:1;fill-rule:evenodd;stroke:none;stroke-width:0.124052;stroke-opacity:1"
           id="rect5878-6"
           width="2.1653645"
           height="2.1653645"
           x="10.96279"
           y="57.673023"
           rx="0.5036338" />
        <rect
           style="fill:#dedede;fill-opacity:1;fill-rule:evenodd;stroke:none;stroke-width:0.124052;stroke-opacity:1"
           id="rect5878-7-4"
           width="2.1653645"
           height="2.1653645"
           x="13.762791"
           y="60.338009"
           rx="0.5036338" />
        <rect
           style="fill:#dedede;fill-opacity:1;fill-rule:evenodd;stroke:none;stroke-width:0.124052;stroke-opacity:1"
           id="rect5878-7-8-4"
           width="2.1653645"
           height="2.1653645"
           x="16.52879"
           y="60.338009"
           rx="0.5036338" />
        <rect
           style="fill:#dedede;fill-opacity:1;fill-rule:evenodd;stroke:none;stroke-width:0.124052;stroke-opacity:1"
           id="rect5878-1"
           width="2.1653645"
           height="2.1653645"
           x="8.1627903"
           y="60.338009"
           rx="0.5036338" />
        <rect
           style="fill:#dedede;fill-opacity:1;fill-rule:evenodd;stroke:none;stroke-width:0.124052;stroke-opacity:1"
           id="rect5878-6-2"
           width="2.1653645"
           height="2.1653645"
           x="10.96279"
           y="60.338009"
           rx="0.5036338" />
        <rect
           style="fill:#dedede;fill-opacity:1;fill-rule:evenodd;stroke:none;stroke-width:0.124052;stroke-opacity:1"
           id="rect5878-7-2"
           width="2.1653645"
           height="2.1653645"
           x="13.762791"
           y="63.00301"
           rx="0.5036338" />
        <rect
           style="fill:#dedede;fill-opacity:1;fill-rule:evenodd;stroke:none;stroke-width:0.124052;stroke-opacity:1"
           id="rect5878-7-8-3"
           width="2.1653645"
           height="2.1653645"
           x="16.52879"
           y="63.00301"
           rx="0.5036338" />
        <rect
           style="fill:#dedede;fill-opacity:1;fill-rule:evenodd;stroke:none;stroke-width:0.124052;stroke-opacity:1"
           id="rect5878-4"
           width="2.1653645"
           height="2.1653645"
           x="8.1627903"
           y="63.00301"
           rx="0.5036338" />
        <rect
           style="fill:#dedede;fill-opacity:1;fill-rule:evenodd;stroke:none;stroke-width:0.124052;stroke-opacity:1"
           id="rect5878-6-27"
           width="2.1653645"
           height="2.1653645"
           x="10.96279"
           y="63.00301"
           rx="0.5036338" />
        <rect
           style="fill:#dedede;fill-opacity:1;fill-rule:evenodd;stroke:none;stroke-width:0.124052;stroke-opacity:1"
           id="rect5878-7-7"
           width="2.1653645"
           height="2.1653645"
           x="13.762791"
           y="65.668007"
           rx="0.5036338" />
        <rect
           style="fill:#dedede;fill-opacity:1;fill-rule:evenodd;stroke:none;stroke-width:0.124052;stroke-opacity:1"
           id="rect5878-7-8-46"
           width="2.1653645"
           height="2.1653645"
           x="16.52879"
           y="65.668007"
           rx="0.5036338" />
        <rect
           style="fill:#dedede;fill-opacity:1;fill-rule:evenodd;stroke:none;stroke-width:0.124052;stroke-opacity:1"
           id="rect5878-64"
           width="2.1653645"
           height="2.1653645"
           x="8.1627903"
           y="65.668007"
           rx="0.5036338" />
        <rect
           style="fill:#dedede;fill-opacity:1;fill-rule:evenodd;stroke:none;stroke-width:0.124052;stroke-opacity:1"
           id="rect5878-6-6"
           width="2.1653645"
           height="2.1653645"
           x="10.96279"
           y="65.668007"
           rx="0.5036338" />
      </g>
    </g>
  </g>
</svg>
